<?xml version="1.0" encoding="UTF-8" standalone="no"?>
<!DOCTYPE svg PUBLIC "-//W3C//DTD SVG 1.1//EN"
 "http://www.w3.org/Graphics/SVG/1.1/DTD/svg11.dtd">
<!-- Generated by graphviz version 2.26.3 (20100126.1600)
 -->
<!-- Title: G Pages: 1 -->
<svg width="322pt" height="418pt"
 viewBox="0.00 0.00 322.00 418.00" xmlns="http://www.w3.org/2000/svg" xmlns:xlink="http://www.w3.org/1999/xlink">
<g id="graph1" class="graph" transform="scale(1 1) rotate(0) translate(4 414)">
<title>G</title>
<polygon fill="white" stroke="white" points="-4,5 -4,-414 319,-414 319,5 -4,5"/>
<g id="graph2" class="cluster"><title>cluster_Global</title>
<polyline fill="none" stroke="gray" points="20,-8 294,-8 "/>
<path fill="none" stroke="gray" d="M294,-8C300,-8 306,-14 306,-20"/>
<polyline fill="none" stroke="gray" points="306,-20 306,-390 "/>
<path fill="none" stroke="gray" d="M306,-390C306,-396 300,-402 294,-402"/>
<polyline fill="none" stroke="gray" points="294,-402 20,-402 "/>
<path fill="none" stroke="gray" d="M20,-402C14,-402 8,-396 8,-390"/>
<polyline fill="none" stroke="gray" points="8,-390 8,-20 "/>
<path fill="none" stroke="gray" d="M8,-20C8,-14 14,-8 20,-8"/>
<text text-anchor="middle" x="157" y="-388.1" font-family="Times Roman,serif" font-size="11.00" fill="gray">Global</text>
</g>
<g id="graph3" class="cluster"><title>cluster_\nanophp</title>
<polyline fill="none" stroke="gray" points="28,-16 286,-16 "/>
<path fill="none" stroke="gray" d="M286,-16C292,-16 298,-22 298,-28"/>
<polyline fill="none" stroke="gray" points="298,-28 298,-360 "/>
<path fill="none" stroke="gray" d="M298,-360C298,-366 292,-372 286,-372"/>
<polyline fill="none" stroke="gray" points="286,-372 28,-372 "/>
<path fill="none" stroke="gray" d="M28,-372C22,-372 16,-366 16,-360"/>
<polyline fill="none" stroke="gray" points="16,-360 16,-28 "/>
<path fill="none" stroke="gray" d="M16,-28C16,-22 22,-16 28,-16"/>
<text text-anchor="middle" x="157" y="-358.1" font-family="Times Roman,serif" font-size="11.00" fill="gray">nanophp</text>
</g>
<g id="graph4" class="cluster"><title>cluster_\nanophp\Libraries</title>
<polyline fill="none" stroke="gray" points="194,-106 278,-106 "/>
<path fill="none" stroke="gray" d="M278,-106C284,-106 290,-112 290,-118"/>
<polyline fill="none" stroke="gray" points="290,-118 290,-330 "/>
<path fill="none" stroke="gray" d="M290,-330C290,-336 284,-342 278,-342"/>
<polyline fill="none" stroke="gray" points="278,-342 194,-342 "/>
<path fill="none" stroke="gray" d="M194,-342C188,-342 182,-336 182,-330"/>
<polyline fill="none" stroke="gray" points="182,-330 182,-118 "/>
<path fill="none" stroke="gray" d="M182,-118C182,-112 188,-106 194,-106"/>
<text text-anchor="middle" x="236" y="-328.1" font-family="Times Roman,serif" font-size="11.00" fill="gray">Libraries</text>
</g>
<g id="graph5" class="cluster"><title>cluster_\nanophp\Template</title>
<polyline fill="none" stroke="gray" points="36,-24 259,-24 "/>
<path fill="none" stroke="gray" d="M259,-24C265,-24 271,-30 271,-36"/>
<polyline fill="none" stroke="gray" points="271,-36 271,-86 "/>
<path fill="none" stroke="gray" d="M271,-86C271,-92 265,-98 259,-98"/>
<polyline fill="none" stroke="gray" points="259,-98 36,-98 "/>
<path fill="none" stroke="gray" d="M36,-98C30,-98 24,-92 24,-86"/>
<polyline fill="none" stroke="gray" points="24,-86 24,-36 "/>
<path fill="none" stroke="gray" d="M24,-36C24,-30 30,-24 36,-24"/>
<text text-anchor="middle" x="147.5" y="-84.1" font-family="Times Roman,serif" font-size="11.00" fill="gray">Template</text>
</g>
<!-- \\nanophp\\Libraries\\Template -->
<g id="node4" class="node"><title>\\nanophp\\Libraries\\Template</title>
<polygon fill="none" stroke="black" points="271,-312 201,-312 201,-276 271,-276 271,-312"/>
<text text-anchor="middle" x="236" y="-291.1" font-family="Courier,monospace" font-size="11.00">Template</text>
</g>
<!-- \\nanophp\\Libraries\\Config -->
<g id="node5" class="node"><title>\\nanophp\\Libraries\\Config</title>
<polygon fill="none" stroke="black" points="263,-258 209,-258 209,-222 263,-222 263,-258"/>
<text text-anchor="middle" x="236" y="-237.1" font-family="Courier,monospace" font-size="11.00">Config</text>
</g>
<!-- \\nanophp\\Libraries\\Application -->
<g id="node6" class="node"><title>\\nanophp\\Libraries\\Application</title>
<polygon fill="none" stroke="black" points="281,-204 191,-204 191,-168 281,-168 281,-204"/>
<text text-anchor="middle" x="236" y="-183.1" font-family="Courier,monospace" font-size="11.00">Application</text>
</g>
<!-- \\nanophp\\Libraries\\Router -->
<g id="node7" class="node"><title>\\nanophp\\Libraries\\Router</title>
<polygon fill="none" stroke="black" points="264,-150 208,-150 208,-114 264,-114 264,-150"/>
<text text-anchor="middle" x="236" y="-129.1" font-family="Courier,monospace" font-size="11.00">Router</text>
</g>
<!-- \\nanophp\\Template\\php -->
<g id="node9" class="node"><title>\\nanophp\\Template\\php</title>
<polygon fill="none" stroke="black" points="263,-68 209,-68 209,-32 263,-32 263,-68"/>
<text text-anchor="middle" x="236" y="-47.1" font-family="Courier,monospace" font-size="11.00">php</text>
</g>
<!-- \\nanophp\\Template\\Template -->
<g id="node10" class="node"><title>\\nanophp\\Template\\Template</title>
<polygon fill="none" stroke="black" points="117,-68 33,-68 33,-32 117,-32 117,-68"/>
<text text-anchor="start" x="41" y="-55.4333" font-family="Courier,monospace" font-size="11.00">«abstract»</text>
<text text-anchor="start" x="47.5" y="-42.2333" font-family="Courier,monospace" font-size="11.00">Template</text>
</g>
<!-- \\nanophp\\Template\\php&#45;&gt;\\nanophp\\Template\\Template -->
<g id="edge6" class="edge"><title>\\nanophp\\Template\\php&#45;&gt;\\nanophp\\Template\\Template</title>
<path fill="none" stroke="black" d="M208.689,-50C186.573,-50 154.764,-50 127.721,-50"/>
<polygon fill="none" stroke="black" points="127.62,-46.5001 117.62,-50 127.62,-53.5001 127.62,-46.5001"/>
</g>
</g>
</svg>
